<mxfile host="app.diagrams.net" modified="2023-07-29T07:32:34.850Z" agent="Mozilla/5.0 (Windows NT 10.0; Win64; x64; rv:109.0) Gecko/20100101 Firefox/115.0" etag="GTZ4NsoEYu78FVAXZ1IP" version="21.6.5" type="device">
  <diagram name="Page-1" id="VZIIqRRXdtm2IghGHygO">
    <mxGraphModel dx="794" dy="432" grid="1" gridSize="10" guides="1" tooltips="1" connect="1" arrows="1" fold="1" page="1" pageScale="1" pageWidth="1100" pageHeight="850" math="0" shadow="0">
      <root>
        <mxCell id="0" />
        <mxCell id="1" parent="0" />
        <mxCell id="Sioro_faqgcx9pmIhb5Y-2" value="&lt;font style=&quot;font-size: 20px;&quot;&gt;Computational Graph&lt;/font&gt;" style="text;html=1;strokeColor=none;fillColor=none;align=center;verticalAlign=middle;whiteSpace=wrap;rounded=0;" vertex="1" parent="1">
          <mxGeometry width="220" height="40" as="geometry" />
        </mxCell>
        <mxCell id="Sioro_faqgcx9pmIhb5Y-25" value="&lt;font style=&quot;font-size: 20px;&quot;&gt;Linear Layer&lt;/font&gt;" style="rounded=1;whiteSpace=wrap;html=1;" vertex="1" parent="1">
          <mxGeometry x="280" y="40" width="120" height="60" as="geometry" />
        </mxCell>
        <mxCell id="Sioro_faqgcx9pmIhb5Y-26" value="&lt;font style=&quot;font-size: 20px;&quot;&gt;ReLU&lt;/font&gt;" style="rounded=1;whiteSpace=wrap;html=1;" vertex="1" parent="1">
          <mxGeometry x="280" y="140" width="120" height="60" as="geometry" />
        </mxCell>
        <mxCell id="Sioro_faqgcx9pmIhb5Y-27" value="&lt;font style=&quot;font-size: 20px;&quot;&gt;Linear Layer&lt;/font&gt;" style="rounded=1;whiteSpace=wrap;html=1;" vertex="1" parent="1">
          <mxGeometry x="280" y="240" width="120" height="60" as="geometry" />
        </mxCell>
        <mxCell id="Sioro_faqgcx9pmIhb5Y-28" value="&lt;font style=&quot;font-size: 20px;&quot;&gt;Softmax&lt;/font&gt;" style="rounded=1;whiteSpace=wrap;html=1;" vertex="1" parent="1">
          <mxGeometry x="280" y="340" width="120" height="60" as="geometry" />
        </mxCell>
        <mxCell id="Sioro_faqgcx9pmIhb5Y-29" value="" style="shape=step;perimeter=stepPerimeter;whiteSpace=wrap;html=1;fixedSize=1;rotation=90;" vertex="1" parent="1">
          <mxGeometry x="320" y="80" width="40" height="80" as="geometry" />
        </mxCell>
        <mxCell id="Sioro_faqgcx9pmIhb5Y-30" value="" style="shape=step;perimeter=stepPerimeter;whiteSpace=wrap;html=1;fixedSize=1;rotation=90;" vertex="1" parent="1">
          <mxGeometry x="320" y="180" width="40" height="80" as="geometry" />
        </mxCell>
        <mxCell id="Sioro_faqgcx9pmIhb5Y-31" value="" style="shape=step;perimeter=stepPerimeter;whiteSpace=wrap;html=1;fixedSize=1;rotation=90;" vertex="1" parent="1">
          <mxGeometry x="320" y="280" width="40" height="80" as="geometry" />
        </mxCell>
        <mxCell id="Sioro_faqgcx9pmIhb5Y-32" value="" style="shape=step;perimeter=stepPerimeter;whiteSpace=wrap;html=1;fixedSize=1;rotation=90;" vertex="1" parent="1">
          <mxGeometry x="320" y="380" width="40" height="80" as="geometry" />
        </mxCell>
        <mxCell id="Sioro_faqgcx9pmIhb5Y-33" value="" style="shape=step;perimeter=stepPerimeter;whiteSpace=wrap;html=1;fixedSize=1;rotation=90;" vertex="1" parent="1">
          <mxGeometry x="320" y="-20" width="40" height="80" as="geometry" />
        </mxCell>
        <mxCell id="Sioro_faqgcx9pmIhb5Y-34" value="&lt;font style=&quot;font-size: 20px;&quot;&gt;Input&lt;/font&gt;" style="text;html=1;strokeColor=none;fillColor=none;align=center;verticalAlign=middle;whiteSpace=wrap;rounded=0;" vertex="1" parent="1">
          <mxGeometry x="380" width="60" height="30" as="geometry" />
        </mxCell>
        <mxCell id="Sioro_faqgcx9pmIhb5Y-35" value="&lt;font style=&quot;font-size: 20px;&quot;&gt;Output&lt;/font&gt;" style="text;html=1;strokeColor=none;fillColor=none;align=center;verticalAlign=middle;whiteSpace=wrap;rounded=0;" vertex="1" parent="1">
          <mxGeometry x="390" y="405" width="60" height="30" as="geometry" />
        </mxCell>
      </root>
    </mxGraphModel>
  </diagram>
</mxfile>
